<svg width="24" height="16" viewBox="0 0 24 16" fill="none" xmlns="http://www.w3.org/2000/svg">
<path d="M22.0162 0.0107422H1.83872V15.4657H22.0162V0.0107422Z" fill="white"/>
<path d="M11.9032 0.0107422H19.1613L13.3548 9.67008C13.016 10.2013 13.2096 10.9256 13.8387 11.3121C14.4193 11.6502 15.1935 11.4087 15.5322 10.8293L22.0645 0.0107422H22.1129C23.1291 0.0107422 24.0001 0.831786 24.0001 1.84602V13.5821C24.0001 14.5963 23.1775 15.4656 22.1614 15.4656L22.0162 15.4657L17.7097 8.94568L16.2581 11.3121L18.9678 15.4657H11.9033V10.1532L14.5646 5.8064C14.9033 5.22684 14.6613 4.50239 14.0808 4.1642C13.4643 3.83346 12.6962 4.04647 12.3388 4.64717L11.9033 5.27491L11.9032 0.0107422ZM1.83872 0.0107422L6.14526 6.5309L7.59692 4.16431L4.79047 0.0109078L11.9032 0.0107422L11.9034 5.32349L9.2905 9.6703C8.95188 10.2015 9.14537 10.9259 9.77431 11.3123C10.3549 11.6504 11.1775 11.4089 11.5163 10.8294L11.9033 10.1532V15.4657L4.74204 15.4659L10.5486 5.80667C10.8872 5.22717 10.6938 4.50272 10.0647 4.16448C9.44817 3.8338 8.68006 4.0468 8.32277 4.64739L1.79028 15.4657C0.822546 15.4657 0 14.5963 0 13.5822V1.84613C0 0.880193 0.8226 0.0107422 1.83872 0.0107422Z" fill="#2970B8"/>
</svg>
